<svg id="图层_1" data-name="图层 1" xmlns="http://www.w3.org/2000/svg" viewBox="0 0 503.32 431.39"><defs><style>.cls-1{fill:#a42122;}.cls-2{fill:#d82f27;}.cls-3{fill:#fff;}.cls-4{fill:#791514;}.cls-5{fill:#ad2524;}</style></defs><path class="cls-1" d="M487.43,373.57c-26.86,14-166,71.21-195.62,86.65s-46.08,15.3-69.48,4.12-171.47-71-198.15-83.75c-13.33-6.37-20.34-11.75-20.34-16.83V312.88s192.77-42,223.89-53.13,41.92-11.57,68.4-1.86,184.85,38.27,211,47.86c0,0,0,45.43,0,50.15C507.14,360.93,501.1,366.45,487.43,373.57Z" transform="translate(-3.84 -40.93)"/><path class="cls-2" d="M487.43,322.68c-26.86,14-166,71.21-195.62,86.65s-46.08,15.3-69.48,4.11-171.47-71-198.15-83.74-27.23-21.53-1-31.78,173.46-68,204.59-79.21,41.91-11.57,68.4-1.86,164.79,64.75,191,74.34S514.29,308.68,487.43,322.68Z" transform="translate(-3.84 -40.93)"/><path class="cls-1" d="M487.43,290.61c-26.86,14-166,71.21-195.62,86.66s-46.08,15.29-69.48,4.1-171.47-71-198.15-83.74c-13.33-6.38-20.34-11.75-20.34-16.82V229.92s192.77-42,223.89-53.13,41.92-11.57,68.4-1.86,184.85,38.26,211,47.85c0,0,0,45.44,0,50.16C507.14,278,501.1,283.49,487.43,290.61Z" transform="translate(-3.84 -40.93)"/><path class="cls-2" d="M487.43,239.72c-26.86,14-166,71.21-195.62,86.66s-46.08,15.29-69.48,4.1-171.47-71-198.15-83.74S-3,225.21,23.15,215s173.46-68,204.59-79.2,41.91-11.57,68.4-1.86,164.79,64.75,191,74.34S514.29,225.72,487.43,239.72Z" transform="translate(-3.84 -40.93)"/><path class="cls-1" d="M487.43,204.57c-26.86,14-166,71.21-195.62,86.66s-46.08,15.29-69.48,4.11-171.47-71-198.15-83.75c-13.33-6.37-20.34-11.75-20.34-16.82V143.89s192.77-42,223.89-53.13,41.92-11.57,68.4-1.87,184.85,38.27,211,47.86c0,0,0,45.44,0,50.15C507.14,191.93,501.1,197.45,487.43,204.57Z" transform="translate(-3.84 -40.93)"/><path class="cls-2" d="M487.43,153.68c-26.86,14-166,71.21-195.62,86.66s-46.08,15.29-69.48,4.11-171.47-71-198.15-83.75-27.23-21.52-1-31.79,173.46-68,204.59-79.19,41.91-11.57,68.4-1.87,164.79,64.75,191,74.34S514.29,139.68,487.43,153.68Z" transform="translate(-3.84 -40.93)"/><polygon class="cls-3" points="317.61 63.75 274 68.28 264.24 91.77 248.47 65.56 198.11 61.03 235.68 47.48 224.41 26.68 259.59 40.44 292.76 29.58 283.79 51.09 317.61 63.75"/><polygon class="cls-3" points="261.63 177.72 180.24 143.96 296.87 126.06 261.63 177.72"/><ellipse class="cls-3" cx="148.79" cy="100.97" rx="62.34" ry="24.16"/><polygon class="cls-4" points="369.15 70.17 438.18 97.45 369.21 124.7 369.15 70.17"/><polygon class="cls-5" points="292.79 100.38 369.15 70.17 369.21 124.7 361.72 127.63 292.79 100.38"/><path class="cls-3" d="M284.79,270.9" transform="translate(-3.84 -40.93)"/><path class="cls-3" d="M357.82,342.36c0-13.59-17-26.47-43.12-34.46,6-26.6,3.35-47.77-8.45-54.54a18.32,18.32,0,0,0-9.37-2.35v9.33a9.67,9.67,0,0,1,4.77,1.09c5.69,3.26,8.16,15.68,6.23,31.66-.46,3.93-1.21,8.07-2.13,12.3a201.76,201.76,0,0,0-26.56-4.56,203,203,0,0,0-17.4-20.91c13.64-12.68,26.44-19.62,35.14-19.62V251c-11.51,0-26.56,8.2-41.79,22.42-15.22-14.14-30.28-22.25-41.78-22.25v9.33c8.65,0,21.5,6.9,35.13,19.49a196.57,196.57,0,0,0-17.27,20.87,194.64,194.64,0,0,0-26.61,4.6c-1-4.18-1.67-8.24-2.17-12.13-2-16,.46-28.4,6.11-31.7a9.21,9.21,0,0,1,4.81-1.09v-9.33a18.65,18.65,0,0,0-9.46,2.34c-11.75,6.78-14.38,27.9-8.32,54.42-26,8-43,20.87-43,34.42s17,26.48,43.13,34.47c-6,26.6-3.35,47.76,8.45,54.54a18.34,18.34,0,0,0,9.41,2.34c11.5,0,26.56-8.2,41.78-22.42,15.23,14.14,30.28,22.25,41.79,22.25a18.64,18.64,0,0,0,9.45-2.34c11.75-6.77,14.39-27.9,8.32-54.41,25.94-8,42.87-20.88,42.87-34.43Zm-54.45-27.9c-1.55,5.4-3.47,11-5.65,16.53-1.71-3.35-3.51-6.7-5.48-10s-4-6.61-6-9.79c5.94.88,11.67,2,17.15,3.3ZM284.21,359c-3.26,5.65-6.61,11-10.08,16-6.23.54-12.55.83-18.91.83s-12.63-.29-18.82-.79c-3.47-5-6.86-10.29-10.12-15.9s-6.06-11-8.7-16.64c2.59-5.61,5.52-11.21,8.66-16.69,3.26-5.65,6.61-11,10.08-16,6.23-.54,12.55-.84,18.9-.84s12.64.3,18.83.8c3.47,5,6.86,10.29,10.12,15.89s6.06,11.05,8.7,16.65c-2.64,5.61-5.52,11.21-8.66,16.69Zm13.51-5.44c2.26,5.61,4.18,11.21,5.77,16.65-5.48,1.34-11.25,2.47-17.23,3.34,2.05-3.22,4.1-6.52,6-9.91s3.73-6.73,5.44-10.08ZM255.31,398.2a172.44,172.44,0,0,1-11.63-13.38c3.76.16,7.61.29,11.5.29s7.82-.08,11.63-.29A161.67,161.67,0,0,1,255.31,398.2Zm-31.12-24.64c-5.94-.87-11.67-2-17.15-3.3,1.55-5.39,3.47-11,5.65-16.52,1.71,3.35,3.51,6.69,5.48,10S222.14,370.39,224.19,373.56Zm30.91-87a172.65,172.65,0,0,1,11.63,13.39c-3.77-.17-7.62-.29-11.51-.29s-7.82.08-11.62.29A161.86,161.86,0,0,1,255.1,286.52Zm-30.95,24.64c-2.05,3.22-4.1,6.52-6,9.91s-3.72,6.69-5.43,10c-2.26-5.6-4.19-11.21-5.78-16.65,5.48-1.29,11.26-2.42,17.24-3.3Zm-37.86,52.37c-14.8-6.32-24.38-14.6-24.38-21.17s9.58-14.89,24.38-21.16c3.6-1.55,7.53-2.93,11.59-4.23a200.67,200.67,0,0,0,9.41,25.48A197.62,197.62,0,0,0,198,367.79c-4.14-1.29-8.08-2.72-11.72-4.26ZM208.8,423.3c-5.69-3.27-8.16-15.69-6.24-31.67.47-3.93,1.22-8.07,2.14-12.29a205.12,205.12,0,0,0,26.56,4.56,203.83,203.83,0,0,0,17.4,20.91c-13.64,12.67-26.44,19.62-35.14,19.62a10.06,10.06,0,0,1-4.72-1.13ZM308,391.42c2,16-.46,28.41-6.11,31.71a9.31,9.31,0,0,1-4.81,1.09c-8.66,0-21.5-6.9-35.13-19.49a197.94,197.94,0,0,0,17.27-20.88,194.22,194.22,0,0,0,26.6-4.6A115.27,115.27,0,0,1,308,391.42Zm16.1-27.89c-3.59,1.54-7.53,2.92-11.58,4.22a201.52,201.52,0,0,0-9.41-25.47,198.7,198.7,0,0,0,9.28-25.35c4.14,1.3,8.07,2.72,11.75,4.27,14.81,6.31,24.39,14.6,24.39,21.16s-9.62,14.89-24.43,21.17Z" transform="translate(-3.84 -40.93)"/><circle class="cls-3" cx="251.39" cy="301.41" r="14.03"/><path class="cls-3" d="M285.8,275.3" transform="translate(-3.84 -40.93)"/></svg>